<svg width="50" height="37" viewBox="0 0 50 37" fill="none" xmlns="http://www.w3.org/2000/svg">
<path d="M49.5047 28.5713C49.253 28.0718 48.7497 27.6555 48.2464 27.4058L41.8713 24.9913L39.2709 24.0755C38.5159 23.7425 37.8448 23.2429 37.4254 22.5769L35.2444 18.9969C35.6638 18.9136 35.9155 18.5806 35.9155 18.1643C35.9155 17.6648 35.58 17.3317 35.0767 17.3317H34.2378L33.2312 15.6666C33.6506 15.5834 33.9023 15.2503 33.9023 14.834C33.9023 14.3345 33.5667 14.0015 33.0634 14.0015H32.2246L31.3858 12.6694C31.7213 12.5861 31.973 12.2531 31.973 11.9201C31.973 11.4205 31.6374 11.0875 31.1341 11.0875H30.3792L29.2887 9.33913C29.2887 9.33913 29.2887 9.25588 29.2048 9.25588C28.1982 8.09029 26.856 7.50749 25.43 7.67401C24.1717 7.84052 23.1651 8.58982 22.7457 9.50564C22.6618 9.75541 22.6618 10.0052 22.8296 10.255L29.792 22.0774C29.8759 22.2439 30.0436 22.4104 30.2114 22.4104L38.7676 25.6574H38.8514L41.368 26.5732L47.6593 28.9876C47.827 29.0709 47.9948 29.1541 48.0787 29.4039C48.4142 30.07 48.4142 30.736 47.9948 31.4021H34.3217C33.4829 31.4021 32.644 31.1523 31.973 30.6528L8.56933 13.4187C8.56933 13.4187 8.90487 13.2522 9.32428 12.6694C9.7437 12.0866 9.91147 11.3373 9.91147 10.588L9.15652 3.59445L10.1631 2.01258C10.4148 1.67955 10.9181 1.59629 11.2536 1.84606C11.5053 2.09583 12.5119 2.9284 14.9445 6.84144C16.2028 8.67308 18.216 10.0052 20.4808 10.3382C20.9003 10.4215 21.4036 10.0884 21.4875 9.67216C21.5713 9.25588 21.2358 8.75634 20.8164 8.67308C19.0548 8.34006 17.3771 7.34098 16.3705 5.84237C13.4346 1.34652 12.5958 0.680474 12.2602 0.430705C11.1697 -0.318601 9.65982 -0.0688325 8.82098 1.0135L3.70406 9.08936C3.36852 9.5889 3.28464 10.1717 3.36852 10.7545C2.86522 10.921 2.36192 11.1708 2.11027 11.6703L0.768122 13.7517C0.0131668 14.834 0.348703 16.3327 1.43919 17.082C2.19415 17.6648 3.78794 18.6638 6.13669 20.1625C6.30446 20.2457 6.47223 20.329 6.55611 20.329C6.80777 20.329 7.05942 20.1625 7.22719 19.9127C7.47884 19.4964 7.39495 18.9969 6.97553 18.7471C4.71067 17.2485 3.11687 16.2494 2.36192 15.6666C2.02638 15.4168 1.9425 15.0006 2.19415 14.5843L3.45241 12.6694C3.70406 12.3364 4.20736 12.2531 4.5429 12.5029L30.8825 31.9849C31.8891 32.7342 33.0634 33.0672 34.2378 33.0672H45.8138C44.0522 33.8997 41.6196 34.6491 39.5225 34.6491H36.5866H34.1539C32.7279 34.6491 31.3019 34.2328 30.1275 33.4835C25.2622 30.403 16.2028 24.6583 9.57594 20.4122C9.15652 20.1625 8.65321 20.2457 8.40156 20.662C8.14991 21.0783 8.23379 21.5778 8.65321 21.8276C15.1123 25.9904 23.9201 31.5686 28.8692 34.7323H7.22719C6.72388 34.7323 6.38835 35.0653 6.38835 35.5649C6.38835 36.0644 6.72388 36.3974 7.22719 36.3974H34.1539H36.5866H39.4386C42.8779 36.3974 47.827 34.5658 49.0853 32.8174C50.1758 31.3188 50.2597 29.9034 49.5047 28.5713ZM30.9663 21.0783L24.4234 10.0052C24.675 9.75541 25.0945 9.50564 25.5978 9.42239C26.1011 9.33913 27.0238 9.42239 27.8626 10.3382L28.3659 11.1708H27.611C27.1077 11.1708 26.7721 11.5038 26.7721 12.0033C26.7721 12.5029 27.1077 12.8359 27.611 12.8359H29.3725L30.2114 14.168H29.5403C29.037 14.168 28.7015 14.501 28.7015 15.0006C28.7015 15.5001 29.037 15.8331 29.5403 15.8331H31.218L32.2246 17.415H31.5535C31.0502 17.415 30.7147 17.748 30.7147 18.2476C30.7147 18.7471 31.0502 19.0801 31.5535 19.0801H33.2312L35.58 22.7434L30.9663 21.0783ZM5.13009 10.0052L7.73049 5.92562L8.23379 10.7545C8.23379 11.0875 8.14991 11.4205 7.98214 11.6703C7.81437 11.9201 7.47884 12.5861 6.72388 12.0033C6.72388 12.0033 6.30446 11.7536 5.54951 11.1708C5.0462 10.7545 4.96232 10.3382 5.13009 10.0052Z" fill="#FF0000"/>
</svg>
